<svg xmlns="http://www.w3.org/2000/svg" width="64" height="64" viewBox="0 0 64 64" fill="none">
  <rect width="64" height="64" rx="12" fill="#1A365D"/>
  <circle cx="32" cy="32" r="6" fill="#61DAFB"/>
  <path d="M32 44C38.6274 44 44 38.6274 44 32C44 25.3726 38.6274 20 32 20C25.3726 20 20 25.3726 20 32C20 38.6274 25.3726 44 32 44Z" stroke="#61DAFB" stroke-width="2"/>
  <path d="M32 44C25.3726 44 20 49.3726 20 56" stroke="#61DAFB" stroke-width="2" stroke-linecap="round"/>
  <path d="M32 44C38.6274 44 44 49.3726 44 56" stroke="#61DAFB" stroke-width="2" stroke-linecap="round"/>
  <path d="M32 20C25.3726 20 20 14.6274 20 8" stroke="#61DAFB" stroke-width="2" stroke-linecap="round"/>
  <path d="M32 20C38.6274 20 44 14.6274 44 8" stroke="#61DAFB" stroke-width="2" stroke-linecap="round"/>
</svg> 